<?xml version="1.0" encoding="UTF-8"?>
<svg version="1.1" viewBox="0 0 2048 752" width="1280" height="1280" xmlns="http://www.w3.org/2000/svg">
<path transform="translate(732,48)" d="m0 0 5 1 2 4-5 9-11 12-3 3v13l3 51v9h-7l-7-22-8-29v-2l-8 7-76 76-2 1 1 5 2 6 1 8v76l-2 12-6 12-7 7-8 4-10 2-19 1h-23l-1-1v-58l-8 6-9 10-83 83 2 4 54 54-6 8-221 221-5-3-224-224 1-4 16-15 9-9 6-7 5-5h2l2-4h2l2-4 5-5h2l2-4h2l2-4h2l2-4 6-5 3-4h2l2-4 6-5 6-7 7-6 6-7 7-6 6-7 7-6 6-7 7-6 6-7 6-5 6-7 7-6 6-7 7-6 6-7 5-5h2l2-4 7-6 6-7 6-5 6-7 15-15 4 1 135 135 3 1 10-9 11-9 14-12 11-9 28-24 11-9 15-13 10-8 14-12 7-5 1-47h29l23 1 10-8 14-12 11-9 14-12 13-11 11-9 15-13 6-5 1-2-10-1-47-9 2-6 3-2h19l49 2 8-7 8-8zm-168 132v13l7-4 7-6 1-3zm32 20-32 32v67h16l9-3 5-4 3-7 1-5v-80z" fill="#4A7CC2"/>
<path transform="translate(269,229)" d="m0 0 4 1 59 59 8 7 32 32 5 6 7 6 2 4-11 10-14 11-15 13-11 9-10 9-11 9-14 12-10 9-11 9-7 6-4 1-8-7-56-56-8 6-31 31 2 4 7 8 13 13 8 7 75 75 4-2 8-8 8-7 126-126 5-3 20 20v2l4 2 5 6 3 2-1 5-179 179-5-1-179-179 1-5z" fill="#FDFDFD"/>
<path transform="translate(269,185)" d="m0 0 4 1 136 136-6 8-13 11-5 2-6-7-7-6-7-8-31-31-8-7-54-54-4 1-178 178 1 5 178 178 5-1 178-178v-4l-7-6-6-7-18-18 3-5 11-12 6-5 4 2 54 54-6 8-221 221-5-3-224-224 1-4 16-15 9-9 6-7 5-5h2l2-4h2l2-4 5-5h2l2-4h2l2-4h2l2-4 6-5 3-4h2l2-4 6-5 6-7 7-6 6-7 7-6 6-7 7-6 6-7 7-6 6-7 6-5 6-7 7-6 6-7 7-6 6-7 5-5h2l2-4 7-6 6-7 6-5 6-7 5-5z" fill="#E30628"/>
<path transform="translate(732,48)" d="m0 0 5 1 2 4-5 9-11 12-3 3v13l3 51v9h-7l-7-22-8-29v-2l-8 7-76 76-2 1 1 5 2 6 1 8v76l-2 12-6 12-7 7-8 4-10 2-19 1h-23l-1-1-1-66v-35l1-47h29l23 1 10-8 14-12 11-9 14-12 13-11 11-9 15-13 6-5 1-2-10-1-47-9 2-6 3-2h19l49 2 8-7 8-8zm-168 132v13l7-4 7-6 1-3zm32 20-32 32v67h16l9-3 5-4 3-7 1-5v-80z" fill="#1E1F1F"/>
<path transform="translate(542,347)" d="m0 0h44l11 3 10 6 7 10 3 9 1 8v71l-2 14-4 10-6 8-10 6-9 2-14 1h-31l-1-5v-117zm21 15-1 9v48l1 61h18l8-3 6-7 2-12v-72l-1-11-4-8-6-4-5-1z" fill="#1F2122"/>
<path transform="translate(1834,347)" d="m0 0h43l13 3 8 6 6 7 5 12 1 9v68l-2 16-4 10-9 10-8 4-8 2-13 1h-32l-1-14v-103zm21 15-1 1v115l1 2h18l8-3 5-5 2-7 1-8v-70l-1-11-5-10-5-3-6-1z" fill="#1E1F1F"/>
<path transform="translate(945,166)" d="m0 0h21v64h38v-64h21v147l-4 1h-15l-2-2v-68h-38v69l-1 1h-18l-2-2z" fill="#1F2021"/>
<path transform="translate(1043,347)" d="m0 0h42l13 3 9 6 6 9 3 9 1 16-2 13-5 10-6 5-4 2 1 7 12 44 7 23-5 1h-15l-3-8-11-39-6-22h-15l-1 68-1 1h-19l-1-1zm23 14-2 1v48l1 1h10l11-2 7-5 3-8 1-14-2-10-4-7-7-3z" fill="#1F2021"/>
<path transform="translate(721,527)" d="m0 0h40l14 3 8 5 5 5 5 10 1 4v26l-4 10-6 7-6 3 1 8 12 43 6 21v3h-18l-3-5-10-34-8-30-16-1v69l-1 1h-19l-1-1zm21 15v49h11l11-2 6-4 3-5 1-4v-21l-4-8-5-4-3-1z" fill="#1E1F1E"/>
<path transform="translate(1645,346)" d="m0 0h22l12 4 9 8 6 12 2 9v82l-3 13-6 10-8 7-10 4-6 1h-17l-11-3-9-7-6-9-4-13-1-9v-70l3-16 5-10 7-7 8-4zm8 15-9 3-5 5-2 4-1 7v83l3 10 7 6 3 1h14l8-5 3-6 1-5v-89l-4-8-5-4-7-2z" fill="#1E1F20"/>
<path transform="translate(1753,346)" d="m0 0h22l10 3 9 7 6 9 3 9 1 10v71l-2 15-4 9-6 8-5 4-10 4-6 1h-17l-13-4-9-8-6-11-3-16v-75l4-16 6-9 8-7zm8 15-8 2-5 4-3 6-1 5v86l3 9 5 5 5 2h13l8-4 4-7 1-5v-87l-4-10-5-4-6-2z" fill="#1E1F1F"/>
<path transform="translate(1175,346)" d="m0 0h21l10 3 6 4 8 9 5 13 1 10v69l-2 16-6 12-5 6-10 6-9 2h-19l-10-3-6-4-8-9-5-14-1-6v-79l3-13 5-9 4-5 10-6zm7 15-9 3-5 6-2 6-1 76 1 14 3 7 5 5 5 2h13l6-3 4-4 3-11v-84l-3-9-5-5-3-2-5-1z" fill="#1E1F20"/>
<path transform="translate(747,347)" d="m0 0h14l5 11 13 30 13 31 10 23 1-95h17v147l-1 1h-9l-4-2-14-32-15-36-11-26-1-1-1 96-1 1h-14l-2-1-1-13v-24z" fill="#1E1F1F"/>
<path transform="translate(732,48)" d="m0 0 5 1 2 4-5 9-11 12-3 3v13l3 51v9h-7l-7-22-8-29v-2l-8 7-76 76-2 1-1 3-6 4-9 11-10 9-22 22-2-2v-36l9-7 4-2 1-3 10-7 4-2v-4l6-4 26-22 11-9 15-13 11-9 15-13 11-9 2-3-10-1-47-9 2-6 3-2h19l49 2 8-7 8-8z" fill="#4C7DC2"/>
<path transform="translate(1537,346)" d="m0 0h22l11 3 9 8 5 10 2 10 1 16-1 1h-19l-2-21-4-8-9-3-11 1-7 4-3 6-1 6v84l3 10 6 5 11 2 9-3 4-4 3-7 2-17 1-13h-18l-1-1v-13h37l1 10v30l-1 33h-8l-5-2-1-11h-2l-9 10-8 4h-18l-11-4-6-5-6-10-4-13-1-10v-67l2-14 4-11 7-9 9-5z" fill="#1E2020"/>
<path transform="translate(879,346)" d="m0 0h22l10 3 8 6 6 10 3 15v14h-19l-2-20-3-7-5-4-10-1-9 2-5 4-3 8-1 42v35l2 16 4 7 7 3h13l6-4 3-4 3-11 1-23-18-1v-14h37v72l-1 1-11-1-1-1-1-12-5 4-7 8-7 3-11 1-11-2-8-4-6-5-6-10-3-10-1-7v-76l3-14 6-12 7-6 9-4z" fill="#1E2020"/>
<path transform="translate(1254,347)" d="m0 0h20l1 113 2 9 4 7 7 3h11l6-3h2l4-10 1-6 1-113h20v106l-1 13-3 10-6 10-8 6-7 3-6 1h-18l-13-4-7-6-6-10-3-11-1-8z" fill="#1E1F1F"/>
<path transform="translate(648,165)" d="m0 0h19l1 112 2 10 4 7 4 3 4 1h10l7-4 4-5 2-7 1-55v-61l5-1h14l1 1v110l-2 14-6 12-4 5-8 5-12 3h-16l-13-4-9-8-6-12-2-9-1-11v-105z" fill="#1F2020"/>
<path transform="translate(1010,526)" d="m0 0h19l10 3 8 6 6 10 2 7 1 8v20h-20l-1-26-3-7-5-4-9-1-9 2-5 5-3 9v86l4 11 6 4 11 1 8-3 4-6 1-5 1-26h20v19l-2 14-5 10-6 7-10 5-6 1h-18l-10-3-6-4-7-8-4-8-3-15v-76l4-16 6-10 8-6 7-3z" fill="#1F2021"/>
<path transform="translate(873,164)" d="m0 0h12l11 2 8 5 7 8 4 10 2 18v11l-17 1-3-1-1-24-3-7-5-5-3-1h-11l-8 4-4 8-1 9v78l3 12 6 5 4 1h11l7-4 3-7 1-6 1-23h9l11 1v12l-2 18-4 10-6 8-7 5-12 3h-15l-11-3-6-4-5-5-5-8-4-12-1-9v-71l3-14 4-9 5-7 7-5 9-3z" fill="#1E1F1F"/>
<path transform="translate(671,347)" d="m0 0h20l3 12 13 62 15 69v4h-20l-6-37h-30l-2 13-4 23-2 2h-17l-1-5 16-76 10-47 4-19zm10 32-3 9-9 49-1 6h25l-1-10-8-43-2-11z" fill="#1E2020"/>
<path transform="translate(1190,526)" d="m0 0h20l11 4 8 8 5 10 3 12-1 4-13 4-4-1-3-14-4-6v-2l-10-3-9 1-5 3-3 5-1 3v10l4 8 10 10 8 7 14 12 9 10 6 10 3 7 1 5v16l-4 11-9 10-10 5-4 1h-18l-11-4-9-8-5-8-4-13-1-9 15-5h4l3 17 5 9 7 4 8 1 9-4 3-4 1-12-2-9-6-9-10-10-11-9-15-14-6-9-4-10v-19l4-10 6-8 8-5z" fill="#1E1F20"/>
<path transform="translate(1958,346)" d="m0 0h20l11 4 6 5 6 10 4 13v5l-13 5-5-1-3-14-5-8-8-3-11 1-6 5-2 7v7l3 8 7 8 11 10 11 9 11 11 8 12 4 12 1 11-2 11-6 11-7 6-9 4-5 1h-16l-10-3-8-6-6-8-5-12-1-4v-9l8-3 9-2 2 6 2 11 5 8 5 4 3 1h10l6-3 3-4 1-4v-11l-4-10-7-9-8-7-15-13-9-8-7-10-4-11v-17l4-11 5-7 10-6z" fill="#1E2020"/>
<path transform="translate(1385,346)" d="m0 0h20l11 4 7 6 7 14 2 7v6l-13 5-5-1-2-11-5-10-5-3-10-1-7 2-4 4-2 8 1 10 4 7 15 14 8 7 10 9 8 9 6 10 3 9 1 13-3 12-6 10-9 7-11 3h-16l-10-3-8-6-7-10-4-11-1-4v-8l7-3 10-2 2 6 2 11 5 8 5 4 3 1h11l6-4 3-6v-13l-6-12-6-7-8-7-21-18-8-10-4-9-1-4v-17l4-11 5-7 10-6z" fill="#1E1F20"/>
<path transform="translate(564,526)" d="m0 0h18l10 3 8 6 5 8 6 17-2 4-9 3-7 1-2-1-1-11-5-10-5-3-10-1-6 2-5 5-2 5v9l3 8 11 11 8 7 14 12 9 10 7 12 3 10v16l-4 11-7 9-12 6-4 1h-18l-11-4-8-7-6-10-4-12v-9l16-6 2 3 3 15 3 6 5 5 9 3 9-2 5-4 2-7v-10l-4-10-9-10-13-12-11-9-7-7-7-11-3-9v-17l4-11 6-8 9-5z" fill="#1E1F20"/>
<path transform="translate(818,527)" d="m0 0h20l5 24 16 75 2 6 2-7 7-36 11-54 1-7 1-1h19l-1 7-19 86-12 54-2 1h-16l-3-9-12-52-12-54-7-30z" fill="#1E1F20"/>
<path transform="translate(1085,527)" d="m0 0h58v14l-1 1h-36v49h29l1 1v13l-1 1h-29v54h36l1 1v13l-1 1h-56l-1-1z" fill="#1E1F1F"/>
<path transform="translate(638,526)" d="m0 0 57 1v15h-37v49h30v14l-1 1h-29v54h36l1 1v14h-57l-1-1v-132z" fill="#1F2122"/>
<path transform="translate(959,347)" d="m0 0h58v15h-37v49h30v15h-30v54h37v15h-57l-1-14z" fill="#1E1F20"/>
<path transform="translate(756,165)" d="m0 0h59l4 1v14l-6 1h-19v132l-1 1h-18l-1-1-1-77v-39l1-16h-25l-1-1v-14z" fill="#1F2123"/>
<path transform="translate(928,527)" d="m0 0h20l1 147-3 1h-17l-1-1z" fill="#1E1E1E"/>
</svg>
